<svg aria-hidden="true" version="1.1" xmlns="http://www.w3.org/2000/svg" width="638.9752" height="778.64494" >
<defs>
<symbol id="icon-403" viewBox="0 0 638.9752 778.64494">
<title>access_denied</title>
<path d="M580.6789,660.677l-.00048-2c3.97656-.001,8.01318-.083,11.999-.24218l.08008,1.998C588.74531,660.594,584.68183,660.67607,580.6789,660.677Zm-12.07519-.23144c-3.99805-.15625-8.05469-.39551-12.05664-.71094l.15723-1.99414c3.97607.31445,8.00585.55176,11.97753.707Zm36.21045-.73731-.15918-1.99414c3.96875-.31738,7.98535-.7207,11.9375-1.19824l.24023,1.98633C612.85371,658.98271,608.81025,659.388,604.81416,659.70829Zm-60.28711-1.166c-3.98779-.47754-8.01221-1.041-11.9624-1.67481l.31738-1.97461c3.92334.62989,7.92139,1.18946,11.88232,1.66309Zm84.26514-1.72852-.31934-1.97461c3.92236-.63379,7.89355-1.35937,11.80322-2.15429l.39844,1.959C636.739,655.4456,632.74092,656.17509,628.79219,656.81376Zm-108.11231-2.10254c-3.936-.79687-7.90185-1.68457-11.78857-2.63574l.47558-1.94336c3.86084.94629,7.8003,1.82715,11.70948,2.61816Zm131.78076-2.71679-.47851-1.94141c3.87256-.95313,7.772-1.99707,11.59033-3.10352l.55664,1.92188C660.28437,649.98466,656.35859,651.03544,652.46064,651.99443Zm-155.2417-3.03028c-3.85644-1.11328-7.73779-2.31836-11.53613-3.582l.63184-1.89844c3.773,1.25586,7.62841,2.45313,11.459,3.5586Zm178.44141-3.68945-.63379-1.89649c3.77539-1.26171,7.57715-2.61816,11.30078-4.0332l.71094,1.86914C683.28926,642.639,679.46113,644.00517,675.66035,645.2747Zm-201.39014-3.95215c-3.752-1.42187-7.53125-2.94141-11.2334-4.51855l.7837-1.83985c3.67724,1.56641,7.43164,3.07617,11.15869,4.48731Zm223.93994-4.6123-.78515-1.83985c3.65625-1.56152,7.32715-3.21679,10.91015-4.9209l.85938,1.80664C705.58711,633.471,701.89082,635.138,698.21015,636.71025Zm-246.21191-4.875c-3.63281-1.72461-7.2749-3.54493-10.82471-5.41114l.93067-1.76953c3.52588,1.85254,7.14306,3.66113,10.75146,5.374Zm267.97656-5.47461-.93164-1.76953c3.52246-1.85352,7.05078-3.80176,10.48633-5.78907l1.00195,1.73047C727.07246,622.53349,723.5207,624.49443,719.9748,626.36064Zm-289.395-5.7793c-3.48535-2.01465-6.9663-4.12207-10.34668-6.26367l1.07032-1.68946c3.35742,2.127,6.81543,4.22071,10.27734,6.22266Zm310.26905-6.29883-1.07032-1.68945c3.35254-2.124,6.71485-4.34961,9.99317-6.61621l1.13672,1.64453C747.60859,609.90361,744.22383,612.14482,740.84883,614.28251Zm-330.69922-6.63769c-3.30713-2.28516-6.606-4.66407-9.80518-7.07129l1.20215-1.59766c3.17822,2.39063,6.45508,4.75391,9.73975,7.02441Zm350.54687-7.084-1.20312-1.59765c3.1709-2.38477,6.3457-4.874,9.43652-7.39942l1.26563,1.54883C767.08418,595.65458,763.88789,598.16044,760.69648,600.56083Zm-369.86377-7.44629c-3.105-2.53711-6.20117-5.17187-9.20263-7.832l1.32617-1.49609c2.98193,2.6416,6.05762,5.25976,9.14209,7.77929Zm388.55811-7.82715-1.32617-1.49609c2.97949-2.64062,5.94629-5.37793,8.81738-8.13477l1.38477,1.44336C785.37715,579.87431,782.39082,582.62919,779.39082,585.28739Zm-406.64111-8.19628c-2.88477-2.77149-5.75928-5.64454-8.543-8.53907l1.4414-1.38672c2.76563,2.876,5.6211,5.73047,8.48731,8.48243Zm424.061-8.53125-1.44141-1.38672c2.75684-2.86719,5.4961-5.833,8.14258-8.81641l1.4961,1.32813C802.34394,562.68681,799.58613,565.67314,796.81074,568.55986ZM356.01338,559.681c-2.66651-3.00586-5.30078-6.09863-7.83057-9.19238l1.54883-1.26563c2.51221,3.07324,5.12939,6.14551,7.77783,9.12988Zm456.83154-9.19434-1.54883-1.26562c2.52735-3.08985,5.02149-6.26758,7.41406-9.44434l1.59766,1.20313C817.89961,544.178,815.38789,547.37626,812.84492,550.48661Zm-472.11621-9.49218c-2.41016-3.2002-4.7876-6.49122-7.06592-9.78321l1.64453-1.13867c2.26319,3.27051,4.62451,6.54,7.019,9.71875ZM827.385,531.178l-1.64453-1.13672c2.27148-3.28516,4.5039-6.6543,6.63379-10.01367l1.68945,1.07031C831.91914,524.47978,829.67207,527.87138,827.385,531.178ZM326.99629,521.15458c-2.14307-3.3789-4.24756-6.84863-6.25537-10.31347l1.73047-1.002c1.99414,3.44141,4.085,6.8877,6.21337,10.24414Zm513.33789-10.39941-1.73047-1.002c2.00195-3.46,3.95605-7,5.80859-10.5205l1.76953.93164C844.31758,503.70829,842.3498,507.27177,840.33418,510.75517ZM314.90791,500.28544c-1.86328-3.53808-3.68067-7.16406-5.40137-10.77734l1.80567-.85938c1.70947,3.58887,3.51464,7.19043,5.36523,10.70508Zm536.69092-10.94238-1.80664-.85938c1.71191-3.60156,3.375-7.28906,4.9414-10.96093l1.83985.78515C854.99629,482.00419,853.32246,485.71708,851.59883,489.34306ZM304.54609,478.52763c-1.57519-3.6836-3.09277-7.44141-4.51123-11.16992l1.86914-.71094c1.40918,3.70215,2.91651,7.43555,4.481,11.09375Zm556.55274-11.45215-1.87012-.709c1.418-3.74122,2.77734-7.55469,4.03809-11.333l1.89648.63281C863.89473,459.471,862.52656,463.30888,861.09883,467.07548ZM295.96846,455.98271c-1.27344-3.80176-2.48536-7.68164-3.60206-11.53028l1.9209-.55664c1.10938,3.82227,2.313,7.67578,3.57764,11.45215Zm572.78466-11.85254-1.92187-.55469c1.10351-3.81641,2.14551-7.71582,3.09765-11.5918l1.94141.47657C870.9123,436.36259,869.86348,440.28935,868.75312,444.13017ZM289.23555,432.78544c-.96094-3.89453-1.854-7.8584-2.65577-11.7832l1.96-.40039c.7959,3.89843,1.68311,7.83691,2.63721,11.70508Zm585.27734-12.11035-1.96094-.39844c.791-3.89551,1.51367-7.86719,2.14844-11.80371l1.97461.31836C876.03633,412.75419,875.30879,416.75224,874.51289,420.67509ZM284.40351,409.1204c-.64111-3.94824-1.21142-7.97168-1.69482-11.959l1.98535-.24024c.48047,3.96094,1.04688,7.957,1.68408,11.87891Zm593.95313-12.293-1.98633-.23828c.47559-3.959.87695-7.97558,1.19141-11.938l1.99414.15821C879.23848,388.79862,878.83515,392.84208,878.35664,396.82743ZM281.49629,385.14482c-.32276-3.99463-.56885-8.05127-.73145-12.05762l1.99805-.08106c.16162,3.9795.40625,8.00928.72656,11.97754ZM880.27461,372.7537l-1.99805-.0791c.15625-3.98535.23633-8.02148.23633-11.99658l-.001-.6626h2l.001.6582C880.51289,364.679,880.43281,368.7415,880.27461,372.7537ZM282.5124,361.00956h-2l.00049-.33594c0-3.90136.07568-7.85253.22559-11.73876l1.998.07714c-.14844,3.86084-.22363,7.78565-.22363,11.666Zm595.73584-12.98779c-.165-3.97119-.41309-8.001-.73926-11.97656l1.99414-.16309c.32715,4.00244.57715,8.05859.74317,12.05664ZM283.43721,337.034l-1.99415-.15625c.31446-4.00489.71387-8.04883,1.18653-12.02051l1.98633.23633C284.14619,329.03886,283.74971,333.05644,283.43721,337.034Zm592.855-12.9253c-.48243-3.94433-1.05274-7.94043-1.69727-11.87695l1.97461-.32275c.64746,3.96289,1.22266,7.98584,1.707,11.95752Zm-590.02-10.89795-1.97461-.3164c.63379-3.96,1.35693-7.95947,2.15039-11.88623l1.96.39551C287.62031,305.30448,286.902,309.27665,286.27217,313.21073Zm586.147-12.7788c-.80274-3.90821-1.69434-7.84473-2.65039-11.70166l1.9414-.48145c.9629,3.88281,1.86036,7.84668,2.668,11.78076ZM291.01875,289.69316l-1.94287-.47461c.95117-3.89258,1.99609-7.82032,3.10547-11.67481l1.92187.55322C293.00117,281.92558,291.96357,285.827,291.01875,289.69316ZM866.64668,277.1453c-1.11328-3.81982-2.32031-7.67187-3.58985-11.44873l1.89649-.63671c1.27734,3.80224,2.49316,7.68017,3.61328,11.52587ZM297.655,266.63652l-1.898-.63086c1.26562-3.80811,2.62891-7.64844,4.05225-11.41407l1.87109.707C300.26631,259.03935,298.91181,262.8538,297.655,266.63652ZM859.0041,254.40263c-1.4209-3.72022-2.93262-7.45117-4.49316-11.08985l1.83789-.78808c1.57129,3.66308,3.09375,7.41894,4.52441,11.16406ZM306.1623,244.137l-1.84082-.7832c1.57178-3.69482,3.2417-7.40967,4.96289-11.04l1.80713.85645C309.38154,236.77665,307.72334,240.46659,306.1623,244.137Zm543.40918-11.72754c-1.71191-3.585-3.5205-7.18457-5.376-10.69873l1.76757-.93408c1.86915,3.53809,3.69043,7.16162,5.41309,10.77149Zm-533.11084-9.99462-1.77148-.92872c1.86426-3.55322,3.82812-7.11865,5.83642-10.59765l1.73243,1C320.26289,215.344,318.31221,218.886,316.46064,222.41484Zm521.92823-11.18067c-2-3.44287-4.09375-6.88721-6.22461-10.23828l1.6875-1.07324c2.1455,3.37353,4.25293,6.84131,6.2666,10.30664Zm-509.91456-9.62646-1.69042-1.06934c2.1455-3.39209,4.38916-6.78613,6.668-10.0874l1.64551,1.13623C332.83369,194.8665,330.60566,198.23759,328.47431,201.60771ZM825.53047,191.013c-2.26856-3.269-4.63379-6.53662-7.0293-9.71045l1.5957-1.20508c2.41211,3.19532,4.793,6.48438,7.07618,9.77588Zm-483.41358-9.16992-1.59863-1.20117c2.41016-3.208,4.91748-6.40918,7.45215-9.51563l1.5498,1.26465C347.00215,175.47636,344.51142,178.65653,342.11689,181.84306Zm468.96924-9.96436c-2.52246-3.07763-5.14355-6.14648-7.78808-9.12109l1.49414-1.3291c2.66308,2.99463,5.30078,6.084,7.84082,9.18261Zm-453.791-8.63427-1.49707-1.3252c2.65527-3,5.40966-5.98926,8.187-8.88477l1.44336,1.38477C362.66963,157.29521,359.9333,160.26493,357.29512,163.24443Zm437.85449-9.292c-2.76758-2.87158-5.626-5.72216-8.49707-8.47314l1.38379-1.44434c2.88965,2.76953,5.76757,5.63916,8.55273,8.52979ZM373.906,145.92753l-1.38672-1.44141c2.88574-2.77685,5.86963-5.53466,8.86767-8.19775l1.32813,1.49512C379.73652,140.429,376.77265,143.16923,373.906,145.92753Zm403.91748-8.57666c-2.98829-2.64209-6.06739-5.25635-9.15039-7.76953l1.26367-1.55029c3.10351,2.53027,6.20312,5.16162,9.21093,7.82177ZM391.841,130.00028l-1.26757-1.54687c3.103-2.5415,6.29638-5.05078,9.49072-7.459l1.2041,1.59668C398.09492,124.9832,394.92305,127.47636,391.841,130.00028Zm367.374-7.81689c-3.19043-2.39453-6.47071-4.75439-9.74707-7.01416l1.13476-1.64648c3.29883,2.2749,6.60059,4.65039,9.81348,7.061Zm-348.231-6.61816-1.13965-1.64356c3.29688-2.28467,6.6792-4.5293,10.05322-6.67187l1.07227,1.68847C417.61836,111.0662,414.25849,113.2957,410.98408,115.56523Zm328.45947-7.01465c-3.37207-2.12988-6.832-4.21924-10.28515-6.21l1-1.73242c3.47461,2.0039,6.958,4.10742,10.35351,6.25146ZM431.21113,102.72l-1.00342-1.73047c3.458-2.00537,7.00782-3.97021,10.54981-5.83886l.93359,1.76855C438.17207,98.77568,434.64619,100.72734,431.21113,102.72Zm287.419-6.17139c-3.53223-1.85058-7.15137-3.65478-10.75782-5.3623l.85547-1.80762c3.63086,1.71875,7.27539,3.53516,10.83008,5.39844Zm-266.2378-5-.86084-1.80566c3.60645-1.71924,7.3003-3.39014,10.9795-4.96631l.78711,1.83838C459.64375,88.18046,455.97431,89.84013,452.39228,91.54862ZM696.90254,86.263c-3.67578-1.561-7.43164-3.06641-11.16406-4.47559l.707-1.87109c3.75683,1.41846,7.53906,2.93457,11.23828,4.50586ZM474.39082,82.12773l-.7124-1.86914c3.74218-1.42676,7.56836-2.79688,11.37207-4.07276l.63574,1.89649C481.9084,79.34941,478.1081,80.71073,474.39082,82.12773Zm200.00683-4.35987c-3.77929-1.25341-7.63574-2.44629-11.46289-3.54541l.55274-1.92187c3.85254,1.10644,7.73437,2.30713,11.53906,3.56885Zm-177.25976-3.2705-.55859-1.91993c3.84619-1.11914,7.771-2.1748,11.665-3.13818l.48047,1.94141C504.85664,72.33769,500.9582,73.38652,497.13789,74.49736ZM651.3376,71.1453c-3.86133-.94189-7.80225-1.81835-11.71241-2.605l.39454-1.96093c3.93652.792,7.9038,1.6748,11.7915,2.62256ZM520.42744,68.73759l-.40137-1.959c3.9209-.80274,7.918-1.53711,11.88037-2.18311l.32227,1.97363C528.29219,67.21122,524.322,67.94071,520.42744,68.73759Zm107.39014-2.32617c-3.93311-.627-7.93164-1.18262-11.88477-1.65039l.23535-1.98633c3.97949.47119,8.00489,1.03027,11.96387,1.66211ZM544.10664,64.8787l-.24219-1.98535c3.97852-.48437,8.02149-.895,12.0166-1.21924l.16211,1.99317C552.07441,63.99,548.0583,64.39726,544.10664,64.8787Zm59.88574-1.28955c-3.96484-.30908-7.99512-.54248-11.97851-.69336l.07617-1.999c4.00976.15234,8.0664.38721,12.05761.69824Zm-35.97217-.65478-.082-1.998c3.999-.165,8.062-.252,12.07617-.25879l.00293,2C576.03,62.68437,571.99336,62.77079,568.02021,62.93437Z" transform="translate(-280.5124 -60.67753)" fill="#3f3d56"/><path d="M919.4876,265.71854v-54.44a125.24708,125.24708,0,0,1-80.85877-60.18885l-.00128.001a23.78923,23.78923,0,0,1-14.22,4.68H781.17907A178.54912,178.54912,0,0,0,919.4876,265.71854Z" transform="translate(-280.5124 -60.67753)" fill="#3f3d56"/><path d="M919.4876,208.15854V155.86075a29.12111,29.12111,0,0,0-29.13-29.13h-41.97v5.05a23.91658,23.91658,0,0,1-7.3988,17.32886A122.29834,122.29834,0,0,0,919.4876,208.15854Z" transform="translate(-280.5124 -60.67753)" fill="#3f3d56"/><path d="M717.59887,155.77072H690.56756a23.987,23.987,0,0,1-23.98-23.99v-5.05h-39.38a29.12752,29.12752,0,0,0-29.13,29.13v648.2a29.07916,29.07916,0,0,0,29.13,29.11h263.15a28.362,28.362,0,0,0,3.59-.22,29.14642,29.14642,0,0,0,25.54-28.89V326.88858C823.77855,315.79843,744.02947,247.50949,717.59887,155.77072Z" transform="translate(-280.5124 -60.67753)" fill="#3f3d56"/><path d="M777.8991,155.77072H720.75884c26.3006,90.03876,104.67969,157.02771,198.72876,168.06788V268.81852A181.66782,181.66782,0,0,1,777.8991,155.77072Z" transform="translate(-280.5124 -60.67753)" fill="#3f3d56"/><path d="M693.36652,823.14985c.72508-.72036,17.92807-18.14191,32.51062-59.47975,13.3778-37.92553,26.87793-104.06144,15.21265-203.76178-22.10037-188.876,91.2277-309.2471,92.37692-310.44115l-3.35458-3.2215c-.29128.3028-29.42936,30.93317-55.35381,84.70624a416.27962,416.27962,0,0,0-38.28761,229.49721C758.533,749.00263,690.77258,819.1676,690.08586,819.85527Z" transform="translate(-280.5124 -60.67753)" opacity="0.1"/><circle cx="587.75265" cy="155.40247" r="30.22227" opacity="0.1"/><circle cx="468.68781" cy="241.19924" r="30.22227" opacity="0.1"/><circle cx="514.27855" cy="328.9095" r="30.22227" opacity="0.1"/><circle cx="422.60283" cy="371.13893" r="30.22227" opacity="0.1"/><circle cx="498.8144" cy="490.25649" r="30.22227" opacity="0.1"/><path d="M675.36592,819.8999s47.00551-65.10166-27.83955-140.81008Z" transform="translate(-280.5124 -60.67753)" opacity="0.1"/><path d="M711.794,827.40518s32.12666-73.59091,135.38474-47.68113Z" transform="translate(-280.5124 -60.67753)" opacity="0.1"/><rect x="351.73017" y="505.93455" width="254" height="50" fill="#6c63ff"/><path d="M709.82,460.64016a76.31447,76.31447,0,1,1,35.4083,28.42977A24.68561,24.68561,0,1,1,709.82,460.64016Z" transform="translate(-280.5124 -60.67753)" fill="#f2f2f2"/><path d="M789.316,390.749c-1.81659-1.04888-8.70111,7.36347-16.3,19.60682-7.59888-12.24335-14.4834-20.6557-16.3-19.60682-2.01825,1.16523,2.948,13.58478,11.2005,28.23237-8.2525,14.64752-13.21875,27.06726-11.2005,28.23248,1.81659,1.04883,8.70111-7.36347,16.3-19.60681,7.59888,12.24334,14.4834,20.65564,16.3,19.60681,2.01819-1.16522-2.948-13.585-11.2005-28.23248C786.368,404.33376,791.33419,391.91421,789.316,390.749Z" transform="translate(-280.5124 -60.67753)" fill="#6c63ff"/><path d="M423.66607,520.33058s-8.13459,34.8625-1.16209,34.8625,20.9175-16.26916,20.9175-16.26916v-9.29667Z" transform="translate(-280.5124 -60.67753)" fill="#a0616a"/><polygon points="160.004 428.858 139.086 461.396 154.193 461.396 160.004 428.858" fill="#d0cde1"/><rect x="147.22096" y="712.40619" width="27.89" height="23.24167" fill="#a0616a"/><polygon points="236.701 708.92 242.512 735.648 271.564 728.675 264.591 705.434 236.701 708.92" fill="#a0616a"/><path d="M430.05752,529.04621s-9.29666,4.64833-10.45875,25.56583,3.48625,75.53542,3.48625,75.53542-4.64833,24.40375,0,46.48334-4.64833,102.26333,1.16209,102.26333,36.02458,3.48625,37.18667,0,2.32416-55.78,2.32416-55.78,9.29667-26.72792,0-42.99708c0,0,20.9175,17.43125,20.9175,22.07958s22.07959,76.6975,32.53834,77.85959,39.51083-1.16209,33.70042-11.62084-19.75542-58.10417-19.75542-58.10417S520.7,675.46871,502.10669,660.36163l9.29667-74.37334s19.75542-49.96958,8.13458-56.94208S430.05752,529.04621,430.05752,529.04621Z" transform="translate(-280.5124 -60.67753)" fill="#2f2e41"/><circle cx="184.40762" cy="248.73492" r="30.21417" fill="#a0616a"/><path d="M449.81294,328.00578s11.62084,38.34876,8.13459,42.99709S495.13419,345.437,495.13419,345.437s-15.10708-10.45875-9.29666-25.56583Z" transform="translate(-280.5124 -60.67753)" fill="#a0616a"/><path d="M498.62044,341.95078s-13.945,4.64834-20.9175,12.78292-23.24166,9.29667-23.24166,9.29667S440.07928,372.13,434.70586,386.11c-5.72682,14.89939-2.39816,35.8766,0,40.67292,4.64833,9.29667,4.64833,32.53834,4.64833,32.53834L433.54377,512.777s-20.9175,19.75542-4.64833,22.07958,45.32125-1.16208,62.7525,0,37.18667,3.48625,31.37625-8.13458-12.78291-19.75542-5.81041-42.99708c5.4562-18.18736,5.21953-86.18739,4.85856-114.90289A23.11813,23.11813,0,0,0,510.845,349.28553Z" transform="translate(-280.5124 -60.67753)" fill="#d0cde1"/><path d="M453.29919,519.74954s-5.28708,11.6405-5.81042,18.59333c-4.06729,54.03688,25.56584,0,25.56584,0v-9.29666Z" transform="translate(-280.5124 -60.67753)" fill="#a0616a"/><path d="M534.645,787.02872s-17.43125-12.78292-17.43125-5.81042-19.75542,34.8625-19.75542,34.8625-32.53833,23.24167-5.81042,23.24167,38.34875-4.64833,38.34875-4.64833l27.89-18.59334s6.9725-8.13458,4.64833-17.43125S552.07628,776.57,552.07628,776.57,542.77961,789.35288,534.645,787.02872Z" transform="translate(-280.5124 -60.67753)" fill="#2f2e41"/><path d="M432.38169,790.515s-2.32417-11.62084-10.45875-5.81042-30.21417,23.24167-30.21417,23.24167-40.67292,9.29666-15.10708,20.9175,83.67-4.64833,83.67-4.64833,2.32417-37.18667,0-36.02459S433.54377,792.83913,432.38169,790.515Z" transform="translate(-280.5124 -60.67753)" fill="#2f2e41"/><polygon points="201.258 317.879 204.744 388.766 170.963 457.185 165.233 455.005 200.096 391.09 201.258 317.879" opacity="0.1"/><path d="M509.07919,357.05787l8.71563-1.74313s26.14687,19.17438,18.01229,57.52313-44.15917,96.45292-44.15917,96.45292-8.13458,10.45875-10.45875,12.78292-6.9725,0-4.64833,3.48625-3.48625,5.81041-3.48625,5.81041-25.56584,0-23.24167-9.29666,41.835-75.53542,41.835-75.53542l-5.81041-61.59042S481.18919,354.7337,509.07919,357.05787Z" transform="translate(-280.5124 -60.67753)" fill="#d0cde1"/><polygon points="239.607 403.873 239.607 395.738 200.096 460.815 239.607 403.873" opacity="0.1"/><path d="M443.4807,281.42323l-4.995-1.9997s10.44394-11.49819,24.97476-10.4983l-4.08688-4.49935s9.98991-3.99933,19.07161,6.499c4.77406,5.51874,10.29773,12.00571,13.74116,19.31322h5.34924l-2.23257,4.91588,7.814,4.91588-8.02032-.883a27.20173,27.20173,0,0,1-.75859,12.73159l.215,3.88551s-9.29668-14.38389-9.29668-16.38359v4.99922s-4.99495-4.49928-4.99495-7.49879l-2.72449,3.49946-1.36225-5.49916-16.80115,5.49916,2.7245-4.49927-10.444,1.49975,4.08688-5.49916s-11.80619,6.499-12.26036,11.99814-6.35707,12.498-6.35707,12.498l-2.72449-4.99922S430.31226,288.922,443.4807,281.42323Z" transform="translate(-280.5124 -60.67753)" fill="#2f2e41"/>
</symbol>
<symbol id="icon-404" viewBox="0 0 1009.54 789.93">
<title>empty</title>
<ellipse cx="354.13" cy="741.27" rx="176.1" ry="33.36" fill="#6c63ff" opacity="0.1"/>
<path d="M681.78,166.43c-64.72-2.24-126.36-23.14-185.22-46S379.4,72.25,316.23,60.14C275.6,52.35,229.13,51.24,196.4,73c-31.51,21-41.69,57.15-47.16,90.72-4.12,25.26-6.54,51.85,4.74,75.5,7.84,16.42,21.74,30.22,31.36,45.95,33.47,54.72,9.81,122.2-26.45,175.63-17,25.06-36.75,49-49.88,75.65S89.81,593.74,101.3,621c11.38,27,38.51,47.24,67.9,61.49,59.69,28.95,130,37.23,198.61,41.93,151.83,10.38,304.46,5.89,456.69,1.38,56.34-1.66,112.92-3.35,168.34-12.06,30.78-4.84,62.55-12.52,84.9-31.06,28.36-23.53,35.39-63.37,16.38-92.87-31.88-49.5-120-61.79-142.31-114.9-12.26-29.24.33-61.8,18.16-88.91,38.24-58.17,102.33-109.2,105.7-175.68,2.32-45.66-28.49-91.39-76.13-113-49.93-22.65-119.18-19.8-156,17.69C805.59,153.57,738.93,168.42,681.78,166.43Z" transform="translate(-95.23 -55.03)" fill="#6c63ff" opacity="0.1"/><path d="M630.35,416.77l-30.63-20.65h0l15.45-23-80.9-6.45L505.2,389.15l-36.39-20.4-30.35,3.65-.36-8a225.78,225.78,0,0,0-2.51-24.9c.13-2.5.22-5.37.21-8.49,0-13.15-1.78-30.58-9.6-42.2L428,272.63,413.4,255.38a110.37,110.37,0,0,1,8-13.46c.5-.72,1-1.42,1.54-2.1,18.95-1.37,33.9-16.95,33.9-36,0-.88,0-1.76-.1-2.63,0-.35-.07-.71-.11-1.06,1.85,1,3.72,2,5.59,3,.35.5.75,1,1.19,1.59l0,0,.09.11.56.69.18.21c.2.24.41.47.62.71l.14.16c.53.59,1.09,1.19,1.69,1.78a1.8,1.8,0,0,1,.2.19l.75.7.21.19c.64.57,1.32,1.12,2,1.64l.22.16.86.59.28.18c.33.2.67.41,1,.6l.12.07c.39.21.79.41,1.19.6l.2.08q.51.22,1,.42l.31.11c.35.12.69.23,1.05.33l.22.06c.44.11.88.2,1.33.27h.05a10.88,10.88,0,0,0,1.28.13h.29a11,11,0,0,0,1.15,0h.25a11.85,11.85,0,0,0,1.43-.17,15.78,15.78,0,0,0,6.3-2.26,5.5,5.5,0,0,0,1.28-1.19c2-2.62-.2-5.49-.2-5.49h0c-.78-1.86-5.84-3.17-5.84-3.17s-16-6.68-16-12-4-32.92-45.29-39.23c0,0-26.86-1.51-34.41,12.87l-.16,1.68c-2.22,1.39-4.06,4.18-6.25,5a10.21,10.21,0,0,0-2.71,1l0-.19h0a2.58,2.58,0,0,0-.61.79,8,8,0,0,0-.83,3,11.3,11.3,0,0,1-1.31,3.63,8.07,8.07,0,0,1-.6.92h0l-.17.27a7.3,7.3,0,0,0,3.4-.55,16.93,16.93,0,0,1-1,4,3.32,3.32,0,0,0,3.08-1.84l0-.08.13-.18a8.44,8.44,0,0,0,.62-1.45l-.11.12c.2-.65.38-1.31.6-1.95a3.06,3.06,0,0,1,.49-1,2.42,2.42,0,0,1,2.07-.69l-.41,8.67h.18a11.83,11.83,0,0,1-.88,1.82c-1.42,2.3-4,3.87-4.95,6.39a9.4,9.4,0,0,0-.46,3.78c0,.75.09,1.51.15,2.26v-.06c.14,2,.18,3.9-.9,5.51-.74,1.1-1.93,1.93-2.34,3.18a3.1,3.1,0,0,0-.15,1.08,12.13,12.13,0,0,0,.68,3.21.14.14,0,0,0,0-.06,4.88,4.88,0,0,1,.17,2.36c-.45,2-2.88,3.67-2.76,5.58a2.15,2.15,0,0,0,.11.74,4.05,4.05,0,0,0,2.26,2,8.8,8.8,0,0,0,5.08,1.12,6.68,6.68,0,0,0,1.9-.65c-.7,1.61-1.42,3.2-2.15,4.71-.11.24-.23.48-.35.72,0,0-6.18-4.13-9.69,4.29a18.68,18.68,0,0,0-2.17,5.64,13.42,13.42,0,0,1-.74,2.32,14.93,14.93,0,0,1-6.68,6c-7.16,3.28-36.08,39.35-36.59,48.69a54.49,54.49,0,0,1-1.84,10.78,64.15,64.15,0,0,0-1.72,25.49,48.77,48.77,0,0,0,1.77,8.13c3.07,9.33,5.12,26.74,5.12,26.74l3.32,30.22a86,86,0,0,0,.54,12.49c-3.39,3.87-17,20-11.8,24.39,4,3.46,11,2.89,14.93,2.18-3.31,8.19-8.52,22.43-9.21,32.21-1,14.47,1.71,33.64,6,41s18.59,26.24,18.59,26.24-.67,25.9,4.44,35.31,7.17,28.93,7.17,28.93,4.77,16.48,2.38,22.54,4.43,11.1-2.73,15.13-16.32,94.86-16.32,94.86-3.69,59.53,0,62.56a3.75,3.75,0,0,0,.63.37v20s-2.56,4.2,7.85,5.05c7.13.57,27.34,1.86,39.33,2.61l9.29.58s22,4.38,31.72,0,26.95-4.28,24.39-15.85a32.92,32.92,0,0,0-1.36-4.63c-2.81-7.18-7.58-8-16.37-10-.51-.11-1-.21-1.45-.29-9.26-1.61-12.3,2.7-17.49-2.91-4.51-4.85-18.87-10.28-23.76-12,.12-.36.27-.71.39-1.08a7.32,7.32,0,0,1-3.71-1.81l13.25.84,7.89.49s18.7,3.73,27,0,22.9-3.63,20.72-13.46a28.21,28.21,0,0,0-1.15-3.94c-2.39-6.1-6.45-6.77-13.92-8.46-.43-.09-.83-.18-1.23-.25-7.87-1.37-10.45,2.29-14.86-2.47-3.78-4.06-15.71-8.61-20-10.16,0-2.22-3-5.38-4.89-8.55-2.22-3.7,1.88-16.65,1.88-16.65L411,658.74a10.38,10.38,0,0,1,2.8-.8s10.58-10.1,8.19-20.86a69.13,69.13,0,0,1-.76-9.83c3.48-3.23,8.27-8,9.63-10.94,2.22-4.79,0-28,0-28V499.56l17.7,1.79L464.62,503l4.89.5,16.06,1.62,36.91,3.73,33.26-6.3,14.39-2.72,29.59-5.6V421.83ZM386.74,176.86l-2.06-.22C385.36,176.67,386.08,176.8,386.74,176.86Z" transform="translate(-95.23 -55.03)" fill="url(#07c62293-c0d3-4921-8e06-4e39241449cd)"/><path d="M558.56,463.78c-10,14.31-45.95,6.73-45.95,6.73l-27.86-26.07L481,440.91l6.29-13.36s2,.55,5.43,1.53C510.73,434.31,567,451.75,558.56,463.78Z" transform="translate(-95.23 -55.03)" fill="#efb7b9"/><path d="M492.7,429.08c-1.23,4.28-4.6,10.69-7.95,15.36L481,440.91l6.29-13.36S489.31,428.1,492.7,429.08Z" transform="translate(-95.23 -55.03)" opacity="0.1"/><path d="M397.15,278.42s-25.68,11.39-24.42,39.36a461.14,461.14,0,0,0,5.88,53.76s-5.25,42.09,16.61,52.94,42.09,19.77,42.09,19.77,34.2,3.68,38.45,5.2,17.53-21.72,15.08-25.34S457,412.9,453,406.86s-13.25-9.77-13.25-9.77-9.55-5.78-10.2-11,1.87-9.11,2.51-11.4,2.26-24.4,2.26-24.4S445.1,271.59,397.15,278.42Z" transform="translate(-95.23 -55.03)" fill="#dce6f2"/><path d="M414.1,370.39s-35.23,5.9-31.82,18.23C382.28,388.62,395.07,375.31,414.1,370.39Z" transform="translate(-95.23 -55.03)" opacity="0.1"/><path d="M414.37,375.38S395,391.19,398.79,392,414.37,375.38,414.37,375.38Z" transform="translate(-95.23 -55.03)" opacity="0.1"/><path d="M423.68,380.89s-5.19,10.63-2,9.91S423.68,380.89,423.68,380.89Z" transform="translate(-95.23 -55.03)" opacity="0.1"/><path d="M494,430.21l-2.14-.61c.61-2,.78-3.62.28-4.37-2.45-3.62-33.82-11.2-37.81-17.25s-13.25-9.77-13.25-9.77-9.55-5.78-10.2-11,1.87-9.11,2.51-11.4,2.26-24.41,2.26-24.41,10.75-78.69-37.2-71.86c0,0-25.68,11.4-24.43,39.37a459.85,459.85,0,0,0,5.89,53.76s-5.25,42.09,16.61,52.94,42.09,19.77,42.09,19.77,34.19,3.67,38.45,5.2c1.61.58,4.52-2.41,7.37-6.52l1.62,1.51,27.86,26.06s35.95,7.59,45.95-6.72C568.31,452.87,512.05,435.43,494,430.21Z" transform="translate(-95.23 -55.03)" opacity="0.1"/><path d="M382.37,173.44a8.5,8.5,0,0,0-2.77,1.07c-1,.83-1,2.25-1.25,3.49a11.48,11.48,0,0,1-2,4.78,7.19,7.19,0,0,0,3.33-.55,17.14,17.14,0,0,1-1,4,3.24,3.24,0,0,0,3-1.83,19.26,19.26,0,0,0,1.25-3.51,2.89,2.89,0,0,1,.48-1c.92-1.09,2.63-.6,4.05-.46a6.65,6.65,0,0,0,6.08-2.92c1.51-2.29,1.6-8.15-2-8.77C387.78,167.12,385.44,172.3,382.37,173.44Z" transform="translate(-95.23 -55.03)" fill="#965d7b"/><g opacity="0.1"><path d="M379.5,175.74c.09-.49.15-1,.26-1.49h0c-.95.83-1,2.24-1.25,3.49a11,11,0,0,1-.59,2.11A11.46,11.46,0,0,0,379.5,175.74Z" transform="translate(-95.23 -55.03)"/><path d="M379.82,184a16.63,16.63,0,0,0,1-4,7.16,7.16,0,0,1-3.17.55,11.57,11.57,0,0,1-1.15,2,7.12,7.12,0,0,0,3.32-.54,16.63,16.63,0,0,1-1,4,3.25,3.25,0,0,0,3-1.83,7.46,7.46,0,0,0,.6-1.43A3,3,0,0,1,379.82,184Z" transform="translate(-95.23 -55.03)"/><path d="M388.6,177.2c-1.42-.14-3.14-.63-4.06.46a3.09,3.09,0,0,0-.48,1c-.09.26-.17.53-.24.8.95-.75,2.49-.35,3.78-.22a6.68,6.68,0,0,0,6.08-2.92,5.54,5.54,0,0,0,.67-1.57A6.66,6.66,0,0,1,388.6,177.2Z" transform="translate(-95.23 -55.03)"/></g><polygon points="317.24 201 332.49 219.34 330.5 237.85 312.07 209 317.24 201" fill="#dce6f2"/><polygon points="332.48 219.34 330.61 236.75 330.49 237.85 313.86 211.81 312.07 209 312.59 208.19 317.23 201 318.26 202.24 332.48 219.34" opacity="0.1"/><path d="M435.63,231.2c-5.16,1.48-10.09,6.56-14.38,12.73a108.65,108.65,0,0,0-7.76,13.34c-1.41,2.82-2.65,5.53-3.68,7.89l-.72,1.68c-1.74,4.11-2.71,6.86-2.71,6.86S366.88,244,373.13,242c2.1-.67,4.86-5.17,7.59-10.84l.34-.72c1.73-3.64,3.43-7.7,4.94-11.52,3.09-7.85,5.38-14.67,5.38-14.67S451.38,226.7,435.63,231.2Z" transform="translate(-95.23 -55.03)" fill="#efb7b9"/><path d="M459.26,202.58s9.12,16.5,21.37,14.25,7.21-8.86,7.21-8.86Z" transform="translate(-95.23 -55.03)" fill="#444053"/><path d="M441.59,773.73c-8.08,3.69-26.35,0-26.35,0l-7.7-.48c-10-.64-26.74-1.72-32.66-2.2-8.64-.71-6.52-4.25-6.52-4.25V745.41l41.92-10.62s16.57,5.67,21.11,10.62c4.31,4.72,6.83,1.09,14.52,2.45.38.07.78.15,1.2.25,7.3,1.67,11.26,2.33,13.6,8.38a28.1,28.1,0,0,1,1.13,3.9C464,770.13,449.66,770.06,441.59,773.73Z" transform="translate(-95.23 -55.03)" fill="#a36468"/><path d="M460.71,756.49a31.34,31.34,0,0,1-4.72,2.42c-5.5,2.51-10.73,5.57-16.29,7.94s-11.55,4.06-17.57,3.61c-3.15-.23-6.37-1-9.38-.1a21.66,21.66,0,0,0-5.21,2.89c-10-.64-26.74-1.72-32.66-2.2-8.64-.71-6.52-4.25-6.52-4.25v-2.5c.31,0,.66-.09,1.06-.12a18.88,18.88,0,0,1,6.1.91c4.34,1.18,8.66,2.34,13,3.5a10.27,10.27,0,0,1,5-6.38,15.94,15.94,0,0,1,8.06-1.85c6.73.09,13.1,3.28,19.82,3.6a10.92,10.92,0,0,0,5.49-.92c.92-.46,1.73-1.13,2.63-1.64a19.2,19.2,0,0,1,4.53-1.53A99.76,99.76,0,0,0,447,755.69c1.2-.47,2.6-1.32,2.44-2.6-.21-1.7-2.88-1.9-3.58-3.46a2,2,0,0,1,.08-1.77c.38.07.78.15,1.2.25C454.41,749.78,458.37,750.44,460.71,756.49Z" transform="translate(-95.23 -55.03)" opacity="0.1"/><path d="M433.05,820.53c-9.5,4.34-31,0-31,0L393,820c-11.72-.75-31.46-2-38.43-2.59-10.17-.84-7.67-5-7.67-5V787.2l49.33-12.5s19.5,6.67,24.84,12.5c5.07,5.55,8,1.28,17.09,2.88.45.08.92.18,1.41.29,8.59,2,13.25,2.75,16,9.87a32.1,32.1,0,0,1,1.33,4.59C459.38,816.29,442.55,816.2,433.05,820.53Z" transform="translate(-95.23 -55.03)" fill="#a36468"/><path d="M455.55,800.24a37.23,37.23,0,0,1-5.55,2.85c-6.47,2.95-12.63,6.55-19.17,9.34s-13.59,4.77-20.68,4.25c-3.7-.27-7.49-1.2-11-.12A25.5,25.5,0,0,0,393,820c-11.72-.75-31.46-2-38.43-2.59-10.17-.84-7.67-5-7.67-5v-2.94a12.5,12.5,0,0,1,1.25-.14,21.94,21.94,0,0,1,7.18,1.07l15.29,4.12a12.1,12.1,0,0,1,5.93-7.51,18.66,18.66,0,0,1,9.49-2.18c7.92.11,15.41,3.86,23.32,4.24A12.91,12.91,0,0,0,415.8,808c1.09-.55,2-1.34,3.1-1.93a21.75,21.75,0,0,1,5.33-1.8,119.69,119.69,0,0,0,15.16-4.92c1.41-.56,3.06-1.56,2.87-3.06-.25-2-3.39-2.24-4.22-4.08a2.41,2.41,0,0,1,.1-2.08c.45.08.92.18,1.41.29C448.14,792.34,452.8,793.12,455.55,800.24Z" transform="translate(-95.23 -55.03)" opacity="0.1"/><path d="M411.55,647.54l-2.67,62.83s-4,12.83-1.83,16.5,5.83,7.33,4.5,9.5S394.22,762,389.05,753s-10.27-48-10.27-48l4.77-48.17Z" transform="translate(-95.23 -55.03)" fill="#444053"/><path d="M423.13,491l7.42,9.92V587.2s2.17,23,0,27.75-13.17,14.25-13.17,14.25l-9.25-47.5,2-50.25Z" transform="translate(-95.23 -55.03)" fill="#444053"/><path d="M411.55,647.54l-2.67,62.83s-4,12.83-1.83,16.5,5.83,7.33,4.5,9.5S394.22,762,389.05,753s-10.27-48-10.27-48l4.77-48.17Z" transform="translate(-95.23 -55.03)" opacity="0.1"/><path d="M423.13,491l7.42,9.92V587.2s2.17,23,0,27.75-13.17,14.25-13.17,14.25l-9.25-47.5,2-50.25Z" transform="translate(-95.23 -55.03)" opacity="0.1"/><path d="M430.55,454.2v46.67l-8.33,36.33s-2.67,87.67-.34,98.33-8,20.67-8,20.67-6,.67-6,5.33-10,18-10,18l.33,26s4.34,48.67-2.33,58,2.33,10.67,2.33,10.67c-8.33,27.33-48.33,21-51.94,18s0-62,0-62,8.94-90,15.94-94,.34-9,2.67-15-2.33-22.33-2.33-22.33-2-19.34-7-28.67-4.34-35-4.34-35-14-18.67-18.16-26-6.84-26.33-5.84-40.67c.68-9.69,5.77-23.8,9-31.92,1.55-3.89,2.67-6.41,2.67-6.41l.95.25,54.62,14.3Z" transform="translate(-95.23 -55.03)" fill="#444053"/><path d="M435.63,231.2c-5.16,1.48-10.09,6.56-14.38,12.73l-1.12,0a35.72,35.72,0,0,1-31-17.93,35.18,35.18,0,0,1-3.14-7.15c3.09-7.85,5.38-14.67,5.38-14.67S451.38,226.7,435.63,231.2Z" transform="translate(-95.23 -55.03)" opacity="0.1"/><path d="M455.88,206.2A35.75,35.75,0,1,1,389,188.68a34.93,34.93,0,0,1,3.78-5.46A36.18,36.18,0,0,1,401,176a35.75,35.75,0,0,1,54.83,27.58C455.85,204.46,455.88,205.33,455.88,206.2Z" transform="translate(-95.23 -55.03)" fill="#efb7b9"/><path d="M425.84,291.78l-.12,1.1-16.63-26c-1.74,4.11-2.71,6.86-2.71,6.86S366.88,244,373.13,242c2.1-.67,4.86-5.17,7.59-10.84l.34-.72c2.9,8.64,19.75,25.91,26.76,32.83.81.8,1.48,1.46,2,1.94l1.07,1,.56.56C414,269.4,424.76,281,425.84,291.78Z" transform="translate(-95.23 -55.03)" opacity="0.1"/><path d="M438.27,380l-1.82,58.57L436.13,449s-21.56-2-41.68-4.2c-16.2-1.77-31.47-3.68-33.82-4.8-3-1.41-9.43-2.5-14.5-3.19-3.92-.53-7-.81-7-.81s-1.15.34-2.92.66c-3.86.7-10.64,1.27-14.59-2.16-5.05-4.39,8.22-20.34,11.53-24.17l.73-.83-1.25-11.55L329.38,368s-2-17.25-5-26.5a48.88,48.88,0,0,1-1.73-8.05,64.48,64.48,0,0,1,1.68-25.26,55.08,55.08,0,0,0,1.8-10.69c.5-9.25,28.75-45,35.75-48.25a14.84,14.84,0,0,0,7.16-7.14,13.64,13.64,0,0,0,1.09-3.11c3-13,10.59-7.84,10.59-7.84,1.83,10.17,30.16,37.09,30.16,37.09l.56.56c2.81,2.88,15.33,16.4,14.44,27.94a33.87,33.87,0,0,0,1.89,12.64,213.75,213.75,0,0,1,9.85,56Z" transform="translate(-95.23 -55.03)" fill="#dce6f2"/><path d="M398.13,310.45s-7,17-12.25,19.75S400.63,336,398.13,310.45Z" transform="translate(-95.23 -55.03)" opacity="0.1"/><path d="M403.38,342.2s-16,2-16,5S403.38,342.2,403.38,342.2Z" transform="translate(-95.23 -55.03)" opacity="0.1"/><path d="M420.13,361.7s-23.25,49.5-29.75,51S420.13,361.7,420.13,361.7Z" transform="translate(-95.23 -55.03)" opacity="0.1"/><path d="M410.44,270.76l-19.23,8.36L368,244.06a13.64,13.64,0,0,0,1.09-3.11c3-13,10.59-7.84,10.59-7.84,1.83,10.17,30.16,37.09,30.16,37.09Z" transform="translate(-95.23 -55.03)" opacity="0.1"/><path d="M411.44,268.76l-19.23,8.36L369,242.06a13.64,13.64,0,0,0,1.09-3.11c3-13,10.59-7.84,10.59-7.84,1.83,10.17,30.16,37.09,30.16,37.09Z" transform="translate(-95.23 -55.03)" fill="#dce6f2"/><path d="M436.13,449s-21.56-2-41.68-4.2l36.1,9.45v11c-1.58,1.43-2.95,2.17-3.84,1.79-4.16-1.75-38.11-7.25-38.11-7.25s-19.72-10-41-22a16.43,16.43,0,0,1-1.5-.94,23.64,23.64,0,0,1-6.3-6.31c-3.93-5.69-5.85-13-6.68-20.17a87.22,87.22,0,0,1-.52-12.38A101.51,101.51,0,0,1,333.88,384a460.08,460.08,0,0,1-3-54c.25-28,26.5-38,26.5-38,48.25-4.25,33.29,73.75,33.29,73.75s-2.79,22-3.55,24.25-3.49,6-3.12,11.25,9.59,11.53,9.59,11.53,9,4.22,12.71,10.47c2.7,4.61,20.24,10.86,30.15,15.32Z" transform="translate(-95.23 -55.03)" opacity="0.1"/><path d="M452.29,184a11.32,11.32,0,0,1-1,4.78,29.55,29.55,0,0,1-1.78,3.56,16.4,16.4,0,0,1-4.38,5.44c-2.31,1.65-5.23,2.11-8,2.78s-5.65,1.74-7.23,4.1a14.34,14.34,0,0,0-1.69,4.9,10.54,10.54,0,0,1-2,4.74,3.93,3.93,0,0,1-4.68,1.12,4.73,4.73,0,0,1-1.81-2.33c-1.14-2.57-1.43-5.42-1.89-8.19s-1.11-5.62-2.81-7.85-4.71-3.7-7.38-2.83a7.11,7.11,0,0,0-4,3.88,22.24,22.24,0,0,0-1.51,5.52q-1.86,10.18-4.39,20.24a1.86,1.86,0,0,1-.33.76,1.44,1.44,0,0,1-1,.42c-2.24.3-4.39-1.27-6.65-1.1a3.82,3.82,0,0,0-.69.11,35.73,35.73,0,0,1,3.61-40.8l.18-.05a10.78,10.78,0,0,0,4-2.52,42.22,42.22,0,0,0,4-4.63l.8-1a45.61,45.61,0,0,1,7.8-7.41,8,8,0,0,1,2.66-1.44,7.88,7.88,0,0,1,2.52-.08,63.57,63.57,0,0,0,10.41.39,66.79,66.79,0,0,1,7.31-.74c6.33.18,11.73,4.65,15.73,9.55C450.24,177.83,452.16,180.72,452.29,184Z" transform="translate(-95.23 -55.03)" opacity="0.1"/><path d="M384.33,189.63c-1.39,2.28-3.9,3.83-4.84,6.33-1.38,3.63.95,8.15-1.19,11.39-.71,1.09-1.88,1.9-2.28,3.15-.68,2.11,1.18,4.36.7,6.53s-3.34,4-2.58,6.12a4,4,0,0,0,2.2,2,8.6,8.6,0,0,0,5,1.11c2.73-.45,4.76-3.13,7.53-3.33,2.25-.16,4.4,1.4,6.64,1.11a1.5,1.5,0,0,0,1-.43,1.73,1.73,0,0,0,.33-.76q2.52-10.05,4.4-20.24a21.8,21.8,0,0,1,1.5-5.52,7.17,7.17,0,0,1,4-3.88c2.67-.86,5.67.6,7.38,2.83s2.36,5.08,2.82,7.85.75,5.62,1.88,8.19a4.78,4.78,0,0,0,1.82,2.34c1.5.87,3.52.18,4.67-1.12a10.43,10.43,0,0,0,2-4.75,14.28,14.28,0,0,1,1.69-4.89c1.58-2.36,4.47-3.43,7.23-4.1s5.67-1.14,8-2.79a16.46,16.46,0,0,0,4.38-5.43c1.48-2.58,2.86-5.38,2.74-8.35-.13-3.24-2.05-6.13-4.1-8.65-4-4.9-9.41-9.37-15.74-9.54a62.2,62.2,0,0,0-7.31.74,62.57,62.57,0,0,1-10.41-.4,8.18,8.18,0,0,0-2.52.09,7.54,7.54,0,0,0-2.65,1.44,45.63,45.63,0,0,0-7.81,7.4,57.31,57.31,0,0,1-4.82,5.6,10.85,10.85,0,0,1-4,2.53c-1,.28-2,.08-2.95.39C386.09,183.52,385.7,187.37,384.33,189.63Z" transform="translate(-95.23 -55.03)" fill="#965d7b"/><path d="M480.63,216.82c-8,1.47-14.63-5-18.3-9.72a39.22,39.22,0,0,1-3.07-4.52l27.46,5.18,1.11.21S492.88,214.58,480.63,216.82Z" transform="translate(-95.23 -55.03)" opacity="0.1"/><g opacity="0.1"><path d="M376.72,214.17a8.33,8.33,0,0,0-.58-3.84c0,.1-.09.2-.12.3-.43,1.34.15,2.73.52,4.12A3,3,0,0,0,376.72,214.17Z" transform="translate(-95.23 -55.03)"/><path d="M379.1,197.8a22.22,22.22,0,0,0,.08,4.15A22.28,22.28,0,0,0,379.1,197.8Z" transform="translate(-95.23 -55.03)"/><path d="M448.55,188.45a16.4,16.4,0,0,1-4.38,5.44c-2.31,1.65-5.22,2.11-8,2.78s-5.65,1.74-7.23,4.1a14.41,14.41,0,0,0-1.69,4.9,10.47,10.47,0,0,1-2,4.75c-1.15,1.3-3.17,2-4.67,1.12a4.78,4.78,0,0,1-1.82-2.34c-1.13-2.57-1.43-5.41-1.88-8.19s-1.12-5.62-2.82-7.85-4.71-3.7-7.38-2.83a7.14,7.14,0,0,0-4,3.88,21.8,21.8,0,0,0-1.5,5.52q-1.87,10.19-4.4,20.24a1.73,1.73,0,0,1-.33.76,1.5,1.5,0,0,1-1,.43c-2.24.29-4.39-1.27-6.64-1.11-2.77.2-4.8,2.88-7.53,3.32a8.45,8.45,0,0,1-5-1.11,5.35,5.35,0,0,1-1.83-1.3,2.7,2.7,0,0,0-.37,2.33,3.9,3.9,0,0,0,2.2,2,8.45,8.45,0,0,0,5,1.11c2.73-.44,4.76-3.12,7.53-3.32,2.25-.16,4.4,1.4,6.64,1.11a1.5,1.5,0,0,0,1-.43,1.73,1.73,0,0,0,.33-.76q2.52-10,4.4-20.24a21.8,21.8,0,0,1,1.5-5.52,7.14,7.14,0,0,1,4-3.88c2.67-.87,5.67.6,7.38,2.83s2.36,5.08,2.82,7.85.75,5.62,1.88,8.19a4.78,4.78,0,0,0,1.82,2.34c1.5.87,3.52.18,4.67-1.12a10.47,10.47,0,0,0,2-4.75,14.41,14.41,0,0,1,1.69-4.9c1.58-2.36,4.47-3.42,7.23-4.1s5.67-1.13,8-2.78a16.4,16.4,0,0,0,4.38-5.44c1.48-2.57,2.86-5.37,2.74-8.34a10.74,10.74,0,0,0-.12-1.14A19.65,19.65,0,0,1,448.55,188.45Z" transform="translate(-95.23 -55.03)"/></g><path d="M451.33,188.75a35.33,35.33,0,0,1,4.45,14.85c-8.91-5-17.29-10.49-21.52-12.4-7.37-3.33-34.93-2.83-45.29-2.52a34.93,34.93,0,0,1,3.78-5.46A36.18,36.18,0,0,1,401,176a35.77,35.77,0,0,1,50.38,12.73Z" transform="translate(-95.23 -55.03)" opacity="0.1"/><path d="M483.13,212.58c-4.81,1.48-12.66-1.38-20.8-5.48a39.22,39.22,0,0,1-3.07-4.52l27.46,5.18C488.54,209,489,210.77,483.13,212.58Z" transform="translate(-95.23 -55.03)" opacity="0.1"/><path d="M422.26,154.08s-26.25-1.5-33.63,12.75l-1.19,12.63-2-.22-.4,8.59s40.12-1.75,49.25,2.37,37.5,24.88,48.87,21.38-1-6.75-1-6.75S466.51,198.2,466.51,193,462.63,160.33,422.26,154.08Z" transform="translate(-95.23 -55.03)" fill="#444053"/><path d="M371.63,622.28s16.75,16.25,24,15C395.63,637.28,375.13,635.53,371.63,622.28Z" transform="translate(-95.23 -55.03)" opacity="0.1"/><path d="M368.13,629.81s1.5,8.36,5.5,7.54S368.13,629.81,368.13,629.81Z" transform="translate(-95.23 -55.03)" opacity="0.1"/><path d="M394.38,769.53s-23.78,18.5-19.77,19S394.38,769.53,394.38,769.53Z" transform="translate(-95.23 -55.03)" opacity="0.1"/><polygon points="330.96 347.33 407.96 334.8 407.96 407.7 334.8 403.87 330.96 347.33" fill="#6c63ff"/><polygon points="330.96 347.33 407.96 334.8 407.96 407.7 334.8 403.87 330.96 347.33" opacity="0.05"/><polygon points="407.96 334.8 500.3 341.71 495.19 405.15 407.96 407.7 407.96 334.8" fill="#6c63ff"/><polygon points="407.96 334.8 500.3 341.71 495.19 405.15 407.96 407.7 407.96 334.8" opacity="0.1"/><polygon points="436.35 312.55 407.96 334.8 500.3 341.71 515.39 318.94 436.35 312.55" fill="#6c63ff"/><polygon points="303.08 323.03 372.4 314.59 407.96 334.8 330.96 347.33 303.08 323.03" fill="#6c63ff"/><polygon points="424.84 353.73 424.84 453.4 388.77 449.7 373.08 448.1 368.3 447.6 352.62 445.99 330.96 443.77 330.96 347.33 407.95 352.57 424.84 353.73" fill="#6c63ff"/><polygon points="500.3 341.71 500.3 438.91 471.39 444.46 457.33 447.16 424.84 453.4 424.84 353.73 500.3 341.71" fill="#6c63ff"/><polygon points="500.3 341.71 500.3 438.91 471.39 444.46 457.33 447.16 424.84 453.4 424.84 353.73 500.3 341.71" opacity="0.05"/><polygon points="303.08 368.31 330.96 347.33 424.84 353.73 411.02 377.01 303.08 368.31" fill="#6c63ff"/><polygon points="303.08 368.31 330.96 347.33 424.84 353.73 411.02 377.01 303.08 368.31" fill="#fff" opacity="0.1"/><polygon points="500.3 341.71 424.84 353.73 449.4 375.73 530.23 362.17 500.3 341.71" fill="#6c63ff"/><polygon points="500.3 341.71 424.84 353.73 449.4 375.73 530.23 362.17 500.3 341.71" fill="#fff" opacity="0.1"/><polygon points="471.39 444.46 457.33 447.16 457.33 426.39 470.5 423.07 471.39 444.46" fill="#fff" opacity="0.1"/><polygon points="388.77 435.96 388.77 449.7 373.08 448.1 373.08 435.96 388.77 435.96" fill="#fff" opacity="0.1"/><polygon points="368.3 440.29 368.3 447.6 352.62 445.99 352.62 440.29 368.3 440.29" fill="#fff" opacity="0.1"/><path d="M510.63,483.7c-10.75,13.75-46.25,4.25-46.25,4.25L438,460.43l-3.58-3.73,7-13s2,.66,5.34,1.82C464.44,451.7,519.68,472.13,510.63,483.7Z" transform="translate(-95.23 -55.03)" opacity="0.1"/><path d="M509.63,481.7c-10.75,13.75-46.25,4.25-46.25,4.25L437,458.43l-3.58-3.73,7-13s2,.66,5.34,1.82C463.44,449.7,518.68,470.13,509.63,481.7Z" transform="translate(-95.23 -55.03)" fill="#efb7b9"/><path d="M445.72,443.52c-1.46,4.2-5.17,10.42-8.76,14.91l-3.58-3.73,7-13S442.39,442.36,445.72,443.52Z" transform="translate(-95.23 -55.03)" opacity="0.1"/><path d="M358.38,288s-26.25,10-26.5,38a460.08,460.08,0,0,0,3,54s-7.5,41.75,13.75,53.75,41,22,41,22,33.95,5.5,38.12,7.25,18.66-20.75,16.41-24.5-33.16-13-36.83-19.25-12.71-10.46-12.71-10.46-9.22-6.29-9.59-11.54,2.35-9,3.12-11.25,3.56-24.25,3.56-24.25S406.63,283.7,358.38,288Z" transform="translate(-95.23 -55.03)" fill="#dce6f2"/><path d="M370.38,380.7s-35.5,4-32.75,16.5C337.63,397.2,351.12,384.59,370.38,380.7Z" transform="translate(-95.23 -55.03)" opacity="0.1"/><path d="M370.38,385.7s-20.15,14.75-16.45,15.75S370.38,385.7,370.38,385.7Z" transform="translate(-95.23 -55.03)" opacity="0.1"/><path d="M379.38,391.7s-5.75,10.34-2.5,9.8S379.38,391.7,379.38,391.7Z" transform="translate(-95.23 -55.03)" opacity="0.1"/><path d="M749,167.42s-38-2.29-33.56,24.37c0,0-.89,4.71,3.38,6.85,0,0,.07-2,3.9-1.31a17.51,17.51,0,0,0,4.13.2,8.57,8.57,0,0,0,5.06-2.09h0s10.69-4.41,14.85-21.89c0,0,3.08-3.82,3-4.8l-6.42,2.75s2.19,4.63.46,8.48c0,0-.2-8.31-1.44-8.12-.25,0-3.33,1.61-3.33,1.61s3.77,8.06.92,13.93c0,0,1.08-9.94-2.1-13.35l-4.52,2.64s4.41,8.33,1.42,15.13c0,0,.77-10.43-2.37-14.49l-4.1,3.19s4.15,8.22,1.62,13.86c0,0-.33-12.14-2.51-13.06,0,0-3.58,3.16-4.12,4.46,0,0,2.83,6,1.07,9.11,0,0-1.08-8.09-2-8.13,0,0-3.57,5.36-3.94,9a19.46,19.46,0,0,1,3.07-9.54,10.71,10.71,0,0,0-5.46,2.83s.55-3.79,6.34-4.12c0,0,3-4.07,3.74-4.32,0,0-5.76-.48-9.25,1.07,0,0,3.07-3.57,10.31-2l4-3.3s-7.58-1-10.8.11c0,0,3.7-3.16,11.89-.86l4.4-2.63s-6.46-1.4-10.31-.89c0,0,4.06-2.19,11.6.18l3.15-1.41s-4.74-.93-6.12-1.08-1.46-.53-1.46-.53a16.36,16.36,0,0,1,8.89,1S749.14,167.84,749,167.42Z" transform="translate(-95.23 -55.03)" fill="#6c63ff"/><path d="M864.46,300.76s-38-2.29-33.56,24.37c0,0-.89,4.71,3.38,6.85,0,0,.07-2,3.91-1.31a17.51,17.51,0,0,0,4.13.2,8.56,8.56,0,0,0,5-2.08h0s10.7-4.42,14.86-21.9c0,0,3.07-3.81,2.95-4.79l-6.42,2.74s2.19,4.63.47,8.48c0,0-.21-8.31-1.44-8.12-.25,0-3.34,1.61-3.34,1.61s3.78,8.07.93,13.93c0,0,1.08-9.94-2.11-13.35L848.75,310s4.41,8.33,1.42,15.13c0,0,.77-10.43-2.37-14.49l-4.09,3.2s4.14,8.21,1.62,13.85c0,0-.33-12.14-2.51-13.06,0,0-3.58,3.16-4.13,4.46,0,0,2.84,6,1.08,9.11,0,0-1.08-8.09-2-8.13,0,0-3.57,5.36-3.94,9a19.52,19.52,0,0,1,3.08-9.54,10.76,10.76,0,0,0-5.47,2.83s.56-3.79,6.35-4.12c0,0,2.95-4.07,3.74-4.32,0,0-5.76-.48-9.25,1.07,0,0,3.07-3.57,10.3-1.95l4-3.3s-7.59-1-10.8.11c0,0,3.7-3.16,11.89-.86l4.4-2.63s-6.47-1.39-10.32-.89c0,0,4.07-2.19,11.61.18l3.15-1.41s-4.74-.93-6.13-1.08-1.46-.53-1.46-.53a16.39,16.39,0,0,1,8.9,1S864.58,301.18,864.46,300.76Z" transform="translate(-95.23 -55.03)" fill="#6c63ff" opacity="0.1"/><path d="M633.61,277.09s8.75-37.09-18.29-37.22c0,0-4.49-1.68-7.32,2.16,0,0,1.93.41.62,4.07a17.8,17.8,0,0,0-.9,4,8.59,8.59,0,0,0,1.19,5.33h0s2.53,11.3,19,18.38c0,0,3.24,3.68,4.22,3.72l-1.6-6.79s-4.94,1.37-8.44-1c0,0,8.23,1.21,8.24,0,0-.25-1-3.56-1-3.56s-8.59,2.34-13.89-1.47c0,0,9.61,2.76,13.52.21L627.16,260s-9,2.93-15.16-1.18c0,0,10.15,2.54,14.69.14l-2.45-4.58s-8.8,2.68-13.93-.77c0,0,12,1.74,13.3-.24,0,0-2.5-4.07-3.69-4.83,0,0-6.36,1.78-9.16-.49,0,0,8.15.31,8.34-.55,0,0-4.67-4.43-8.23-5.43a19.6,19.6,0,0,1,8.89,4.66,10.79,10.79,0,0,0-1.86-5.87s3.64,1.2,3,7c0,0,3.5,3.6,3.61,4.42,0,0,1.45-5.59.52-9.3,0,0,3,3.64.17,10.49l2.56,4.55s2.32-7.3,1.73-10.66c0,0,2.49,4.18-1.18,11.86l1.85,4.79s2.47-6.14,2.63-10c0,0,1.47,4.38-2.16,11.41l.86,3.34s1.72-4.51,2.1-5.85.77-1.35.77-1.35a16.38,16.38,0,0,1-2.49,8.6S633.18,277.14,633.61,277.09Z" transform="translate(-95.23 -55.03)" fill="#6c63ff" opacity="0.1"/><path d="M550.39,289.73s-30.52-22.83-41.43,1.9c0,0-3.33,3.45-.94,7.58,0,0,1.14-1.61,4,1.06a17.51,17.51,0,0,0,3.34,2.44,8.58,8.58,0,0,0,5.37,1h0s11.36,2.19,24.44-10.12c0,0,4.67-1.5,5.11-2.38L543.39,290s-.72,5.07-4.27,7.34c0,0,4.39-7.06,3.25-7.57-.23-.11-3.67-.5-3.67-.5s-1.28,8.82-6.88,12.15c0,0,6.37-7.71,5.58-12.31l-5.23-.28s-.89,9.39-7.13,13.43c0,0,6.37-8.29,6-13.41l-5.18.42s-1.05,9.13-6.26,12.45c0,0,6.39-10.32,5.08-12.28,0,0-4.73.67-5.9,1.45,0,0-.91,6.54-4.11,8.2,0,0,3.55-7.35,2.83-7.86,0,0-5.93,2.51-8.26,5.37a19.53,19.53,0,0,1,7.82-6.28,10.77,10.77,0,0,0-6.12-.64s2.54-2.86,7.56.05c0,0,4.7-1.77,5.5-1.55,0,0-4.55-3.57-8.32-4.19,0,0,4.54-1.3,9.69,4l5.19-.53s-5.77-5-9.08-5.84c0,0,4.83-.61,10.4,5.81l5.12.23s-4.63-4.72-8.12-6.42c0,0,4.59.4,9.59,6.53l3.41.55s-3.45-3.38-4.53-4.26-.93-1.25-.93-1.25a16.43,16.43,0,0,1,6.89,5.72S550.26,290.14,550.39,289.73Z" transform="translate(-95.23 -55.03)" fill="#6c63ff" opacity="0.1"/><path d="M652,77.62s-30.52-22.84-41.43,1.9c0,0-3.33,3.45-.94,7.58,0,0,1.14-1.61,4,1.06a17.79,17.79,0,0,0,3.35,2.43,8.57,8.57,0,0,0,5.37,1h0s11.36,2.19,24.44-10.13c0,0,4.67-1.49,5.1-2.38L645,77.89s-.71,5.07-4.27,7.34c0,0,4.4-7.06,3.26-7.57-.23-.11-3.67-.5-3.67-.5S639,86,633.4,89.31c0,0,6.36-7.71,5.58-12.31l-5.23-.28s-.9,9.39-7.13,13.42c0,0,6.37-8.29,6-13.41l-5.17.42s-1.06,9.14-6.27,12.46c0,0,6.4-10.32,5.09-12.28,0,0-4.73.67-5.9,1.45,0,0-.91,6.54-4.11,8.2,0,0,3.55-7.35,2.83-7.87,0,0-5.93,2.52-8.26,5.38a19.44,19.44,0,0,1,7.82-6.28,10.7,10.7,0,0,0-6.13-.64s2.55-2.86,7.57.05c0,0,4.7-1.78,5.5-1.55,0,0-4.55-3.57-8.32-4.2,0,0,4.53-1.29,9.68,4l5.19-.53s-5.76-5-9.08-5.85c0,0,4.83-.6,10.41,5.82l5.12.22s-4.63-4.72-8.13-6.41c0,0,4.6.4,9.6,6.53l3.4.55S640,72.86,638.92,72s-.93-1.24-.93-1.24a16.4,16.4,0,0,1,6.89,5.72S651.83,78,652,77.62Z" transform="translate(-95.23 -55.03)" fill="#6c63ff" opacity="0.1"/><path d="M768.62,106.55s-12.2-36.11-35.21-21.92c0,0-4.7,1-5.07,5.71,0,0,1.85-.68,2.67,3.12a18,18,0,0,0,1.37,3.91,8.66,8.66,0,0,0,3.84,3.89h0s8.12,8.25,25.88,5.52c0,0,4.69,1.42,5.55.93l-5-4.91s-3.46,3.77-7.68,3.62c0,0,7.63-3.32,7-4.39-.13-.21-2.74-2.48-2.74-2.48s-6.06,6.53-12.56,6.1c0,0,9.61-2.74,11.57-7l-4.14-3.19s-6.06,7.22-13.49,7c0,0,10-3.21,12.53-7.65l-4.5-2.59s-6,6.93-12.22,6.71c0,0,11.12-4.87,11.15-7.23,0,0-4.27-2.13-5.68-2.15,0,0-4.46,4.87-8,4.43,0,0,7.08-4.05,6.78-4.88,0,0-6.3-1.29-9.85-.25a19.49,19.49,0,0,1,10-.75,10.79,10.79,0,0,0-4.69-4s3.72-.91,6.21,4.33c0,0,4.88,1.21,5.4,1.84,0,0-1.72-5.51-4.47-8.17,0,0,4.47,1.51,5.69,8.82l4.58,2.5s-1.89-7.41-4.17-10c0,0,4.33,2.24,5.27,10.69l4.1,3.09s-1.14-6.52-3.06-9.9c0,0,3.56,2.94,4.2,10.83l2.49,2.38s-.92-4.74-1.3-6.08S761,93,761,93a16.49,16.49,0,0,1,2.43,8.62S768.27,106.81,768.62,106.55Z" transform="translate(-95.23 -55.03)" fill="#6c63ff" opacity="0.1"/><path d="M689,108.33S651.1,104.11,654.23,131c0,0-1.13,4.66,3,7,0,0,.17-2,4-1.1a18.4,18.4,0,0,0,4.12.41,8.6,8.6,0,0,0,5.15-1.83h0s10.91-3.87,16-21.12c0,0,3.26-3.65,3.19-4.64l-6.55,2.42s2,4.73,0,8.49c0,0,.21-8.31-1-8.18-.25,0-3.41,1.44-3.41,1.44s3.36,8.25.22,14c0,0,1.58-9.88-1.43-13.44l-4.65,2.4s4,8.55.65,15.19c0,0,1.3-10.38-1.63-14.59l-4.25,3s3.72,8.41.91,13.92c0,0,.29-12.14-1.84-13.17,0,0-3.74,3-4.35,4.24,0,0,2.53,6.1.62,9.15,0,0-.67-8.13-1.55-8.21,0,0-3.84,5.17-4.4,8.82a19.47,19.47,0,0,1,3.56-9.38,10.76,10.76,0,0,0-5.6,2.55s.74-3.75,6.54-3.79c0,0,3.15-3.91,4-4.12,0,0-5.73-.77-9.3.6,0,0,3.25-3.42,10.39-1.43l4.21-3.09S663.22,115,660,116c0,0,3.86-3,11.92-.25l4.53-2.41s-6.39-1.72-10.26-1.41c0,0,4.17-2,11.58.77l3.22-1.25s-4.69-1.17-6.07-1.39-1.43-.6-1.43-.6a16.45,16.45,0,0,1,8.84,1.44S689.07,108.75,689,108.33Z" transform="translate(-95.23 -55.03)" fill="#6c63ff" opacity="0.1"/><path d="M1020.6,402.5s-37.88-4.22-34.75,22.64c0,0-1.13,4.66,3,7,0,0,.17-2,4-1.11a17.3,17.3,0,0,0,4.12.41,8.53,8.53,0,0,0,5.15-1.83h0s10.91-3.87,15.95-21.11c0,0,3.26-3.66,3.19-4.64l-6.55,2.41s2,4.74,0,8.5c0,0,.21-8.32-1-8.18-.25,0-3.41,1.43-3.41,1.43s3.36,8.25.22,14c0,0,1.58-9.87-1.43-13.44l-4.65,2.41s4,8.55.66,15.19c0,0,1.29-10.38-1.64-14.6l-4.25,3s3.72,8.41.91,13.91c0,0,.29-12.14-1.84-13.16,0,0-3.73,3-4.35,4.24,0,0,2.54,6.1.62,9.15,0,0-.67-8.13-1.55-8.21,0,0-3.84,5.17-4.4,8.82a19.47,19.47,0,0,1,3.56-9.38,10.67,10.67,0,0,0-5.6,2.55s.74-3.76,6.54-3.8c0,0,3.16-3.91,4-4.11,0,0-5.73-.78-9.3.59,0,0,3.25-3.41,10.4-1.42l4.2-3.09s-7.52-1.42-10.79-.44c0,0,3.86-3,11.92-.26l4.53-2.4s-6.39-1.72-10.26-1.41c0,0,4.17-2,11.58.77l3.22-1.26s-4.69-1.17-6.07-1.38-1.43-.6-1.43-.6a16.39,16.39,0,0,1,8.84,1.43S1020.7,402.93,1020.6,402.5Z" transform="translate(-95.23 -55.03)" fill="#6c63ff" opacity="0.1"/><path d="M1078.51,437.88s-37.88-4.21-34.75,22.64c0,0-1.12,4.66,3,7,0,0,.17-2,4-1.1a17.65,17.65,0,0,0,4.11.4A8.64,8.64,0,0,0,1060,465h0s10.9-3.87,15.94-21.12c0,0,3.27-3.65,3.19-4.64l-6.55,2.41s2,4.74,0,8.5c0,0,.21-8.31-1-8.18-.25,0-3.41,1.43-3.41,1.43s3.36,8.25.22,14c0,0,1.58-9.87-1.43-13.43l-4.65,2.4s4,8.55.66,15.19c0,0,1.29-10.38-1.64-14.59l-4.25,3s3.72,8.41.92,13.92c0,0,.28-12.15-1.85-13.17,0,0-3.73,3-4.35,4.24,0,0,2.54,6.1.62,9.15,0,0-.67-8.13-1.55-8.21,0,0-3.84,5.17-4.39,8.82a19.52,19.52,0,0,1,3.55-9.38,10.76,10.76,0,0,0-5.6,2.55s.75-3.76,6.55-3.79c0,0,3.15-3.91,4-4.12,0,0-5.73-.77-9.3.6,0,0,3.25-3.42,10.4-1.43l4.2-3.09s-7.52-1.42-10.79-.44c0,0,3.86-3,11.92-.25l4.53-2.41s-6.39-1.72-10.26-1.41c0,0,4.17-2,11.58.77l3.22-1.25s-4.69-1.17-6.06-1.39-1.44-.6-1.44-.6a16.45,16.45,0,0,1,8.84,1.44S1078.61,438.31,1078.51,437.88Z" transform="translate(-95.23 -55.03)" fill="#6c63ff" opacity="0.1"/><path d="M949.94,139.87s-30.52-22.83-41.43,1.9c0,0-3.33,3.45-.94,7.58,0,0,1.14-1.61,4,1.06a17.51,17.51,0,0,0,3.34,2.44,8.59,8.59,0,0,0,5.37,1h0s11.36,2.19,24.45-10.12c0,0,4.66-1.5,5.1-2.38l-6.87-1.24s-.72,5.07-4.27,7.34c0,0,4.39-7.06,3.25-7.57-.23-.11-3.66-.5-3.66-.5s-1.29,8.82-6.89,12.15c0,0,6.37-7.71,5.58-12.31l-5.23-.28s-.89,9.39-7.13,13.43c0,0,6.38-8.29,6-13.41l-5.18.42s-1,9.13-6.26,12.45c0,0,6.4-10.32,5.08-12.28,0,0-4.73.67-5.9,1.45,0,0-.9,6.54-4.1,8.2,0,0,3.54-7.35,2.82-7.86,0,0-5.93,2.51-8.26,5.37a19.53,19.53,0,0,1,7.82-6.28,10.77,10.77,0,0,0-6.12-.64s2.55-2.86,7.57.05c0,0,4.69-1.77,5.49-1.55,0,0-4.55-3.57-8.32-4.19,0,0,4.54-1.3,9.69,4l5.19-.53s-5.76-5-9.08-5.84c0,0,4.83-.61,10.4,5.81l5.13.23s-4.64-4.72-8.13-6.42c0,0,4.6.4,9.59,6.53l3.41.55s-3.45-3.38-4.53-4.26S936,133,936,133a16.44,16.44,0,0,1,6.88,5.72S949.81,140.28,949.94,139.87Z" transform="translate(-95.23 -55.03)" fill="#6c63ff" opacity="0.1"/><path d="M973.52,304.69S963,268.06,939.34,281.21c0,0-4.74.73-5.33,5.47,0,0,1.88-.59,2.53,3.24a17.73,17.73,0,0,0,1.2,4A8.59,8.59,0,0,0,941.4,298h0s7.74,8.6,25.6,6.68c0,0,4.62,1.62,5.5,1.18l-4.73-5.14s-3.63,3.62-7.83,3.28c0,0,7.76-3,7.16-4.07-.12-.22-2.62-2.61-2.62-2.61s-6.34,6.26-12.82,5.53c0,0,9.73-2.3,11.87-6.44l-4-3.38s-6.38,6.94-13.79,6.4c0,0,10.08-2.77,12.86-7.08l-4.38-2.79s-6.35,6.65-12.51,6.15c0,0,11.33-4.37,11.47-6.72,0,0-4.18-2.32-5.59-2.4,0,0-4.67,4.66-8.22,4.06,0,0,7.26-3.73,7-4.57,0,0-6.24-1.57-9.83-.7a19.51,19.51,0,0,1,10-.29,10.73,10.73,0,0,0-4.5-4.2s3.76-.75,6,4.6c0,0,4.81,1.42,5.31,2.08,0,0-1.47-5.59-4.1-8.36,0,0,4.4,1.7,5.29,9.06l4.46,2.71s-1.56-7.5-3.72-10.14c0,0,4.22,2.43,4.79,10.91l4,3.27s-.85-6.56-2.61-10c0,0,3.43,3.1,3.71,11l2.38,2.5s-.7-4.78-1-6.14,0-1.55,0-1.55a16.39,16.39,0,0,1,2.05,8.72S973.16,304.93,973.52,304.69Z" transform="translate(-95.23 -55.03)" fill="#6c63ff" opacity="0.1"/><path d="M739.1,387.23s-20.43-32.18-39.4-12.92c0,0-4.34,2-3.58,6.75,0,0,1.65-1.1,3.35,2.4a17.12,17.12,0,0,0,2.26,3.46,8.54,8.54,0,0,0,4.65,2.88h0s9.85,6.08,26.45-.8c0,0,4.89.26,5.61-.41l-6-3.6s-2.47,4.5-6.6,5.35c0,0,6.62-5,5.73-5.92-.17-.18-3.25-1.76-3.25-1.76s-4.33,7.78-10.75,8.91c0,0,8.69-4.95,9.59-9.53l-4.79-2.11s-4.17,8.45-11.43,10c0,0,8.9-5.49,10.35-10.41l-5-1.44s-4.22,8.17-10.27,9.42c0,0,9.64-7.38,9.11-9.68,0,0-4.66-1.05-6-.73,0,0-3.17,5.79-6.75,6.21,0,0,5.92-5.62,5.43-6.36,0,0-6.43.25-9.63,2.1a19.46,19.46,0,0,1,9.54-3.1,10.73,10.73,0,0,0-5.49-2.77s3.39-1.77,7,2.73c0,0,5,0,5.69.5,0,0-3-5-6.29-6.87,0,0,4.7.4,7.62,7.21l5.05,1.34s-3.61-6.75-6.42-8.68c0,0,4.73,1.14,7.66,9.13l4.72,2s-2.66-6.05-5.33-8.88c0,0,4.16,2,6.65,9.51l3,1.73s-2-4.39-2.71-5.6-.43-1.49-.43-1.49a16.4,16.4,0,0,1,4.41,7.79S738.83,387.57,739.1,387.23Z" transform="translate(-95.23 -55.03)" fill="#6c63ff" opacity="0.1"/><path d="M873.37,222.81s-19.43-32.79-39-14.13c0,0-4.4,1.9-3.78,6.64,0,0,1.67-1.06,3.27,2.49a17.28,17.28,0,0,0,2.15,3.54,8.49,8.49,0,0,0,4.56,3h0s9.65,6.38,26.46,0c0,0,4.88.41,5.62-.24l-5.87-3.78s-2.6,4.41-6.76,5.14c0,0,6.77-4.83,5.92-5.74-.18-.19-3.2-1.87-3.2-1.87s-4.57,7.65-11,8.58c0,0,8.84-4.68,9.87-9.22L856.89,215s-4.43,8.33-11.74,9.66c0,0,9.07-5.21,10.67-10.08l-4.94-1.6s-4.48,8-10.56,9.1c0,0,9.86-7.08,9.4-9.39,0,0-4.62-1.2-6-.92,0,0-3.35,5.69-6.94,6,0,0,6.09-5.42,5.63-6.18,0,0-6.44.05-9.69,1.8a19.52,19.52,0,0,1,9.63-2.8,10.75,10.75,0,0,0-5.41-2.94s3.45-1.67,7,2.94c0,0,5,.17,5.67.68,0,0-2.83-5-6.07-7.06,0,0,4.68.54,7.39,7.44l5,1.5s-3.39-6.86-6.15-8.88c0,0,4.7,1.29,7.38,9.36l4.65,2.17s-2.47-6.13-5-9c0,0,4.09,2.13,6.36,9.71l2.93,1.82s-1.88-4.45-2.54-5.68-.38-1.5-.38-1.5a16.43,16.43,0,0,1,4.17,7.92S873.08,223.14,873.37,222.81Z" transform="translate(-95.23 -55.03)" fill="#6c63ff"/><path d="M750.44,291.76s1-38.1-25.47-32.73c0,0-4.74-.73-6.74,3.61,0,0,2,0,1.44,3.85a17.56,17.56,0,0,0-.06,4.14,8.55,8.55,0,0,0,2.25,5h0s4.77,10.54,22.38,14.12c0,0,3.91,2.95,4.89,2.79l-3-6.32s-4.55,2.34-8.46.75c0,0,8.3-.49,8.07-1.71,0-.25-1.72-3.29-1.72-3.29s-7.94,4.05-13.89,1.39c0,0,10,.75,13.27-2.54l-2.79-4.43s-8.18,4.68-15.08,1.92c0,0,10.45.42,14.41-2.85l-3.33-4s-8.07,4.42-13.79,2.08c0,0,12.12-.73,13-2.94,0,0-3.28-3.47-4.6-4,0,0-5.86,3-9.06,1.38,0,0,8-1.34,8.05-2.23,0,0-5.47-3.39-9.16-3.64a19.47,19.47,0,0,1,9.65,2.76,10.75,10.75,0,0,0-3-5.37s3.81.43,4.33,6.2c0,0,4.17,2.82,4.44,3.6,0,0,.29-5.77-1.38-9.21,0,0,3.68,2.95,2.3,10.23l3.43,3.94s.78-7.62-.47-10.79c0,0,3.28,3.59,1.26,11.85l2.77,4.31s1.18-6.51.55-10.34c0,0,2.32,4,.2,11.61l1.52,3.1s.77-4.77.87-6.16.48-1.48.48-1.48a16.42,16.42,0,0,1-.69,8.93S750,291.89,750.44,291.76Z" transform="translate(-95.23 -55.03)" fill="#6c63ff"/><ellipse cx="698.97" cy="716.3" rx="26.93" ry="4.55" fill="#6c63ff" opacity="0.1"/><ellipse cx="600.8" cy="785.38" rx="26.93" ry="4.55" fill="#6c63ff" opacity="0.1"/><ellipse cx="93.14" cy="749.99" rx="26.93" ry="4.55" fill="#6c63ff" opacity="0.1"/><ellipse cx="805.06" cy="780.83" rx="26.93" ry="4.55" fill="#6c63ff" opacity="0.1"/><ellipse cx="833.1" cy="723.1" rx="40.21" ry="6.8" fill="#6c63ff"/><path d="M945,767a11.61,11.61,0,0,0,3.83-5.78c.5-2.3-.48-5.05-2.67-5.89-2.46-.94-5.09.76-7.09,2.48s-4.27,3.69-6.88,3.33a10.5,10.5,0,0,0,3.24-9.81,4.11,4.11,0,0,0-.9-2c-1.37-1.46-3.84-.83-5.48.32-5.2,3.66-6.65,10.72-6.68,17.08-.52-2.29-.08-4.68-.09-7s-.66-5-2.65-6.22a7.91,7.91,0,0,0-4-1c-2.34-.08-4.95.15-6.54,1.86-2,2.12-1.47,5.69.25,8s4.35,3.8,6.77,5.42a15.13,15.13,0,0,1,4.84,4.61,4.7,4.7,0,0,1,.35.82h14.66A40.44,40.44,0,0,0,945,767Z" transform="translate(-95.23 -55.03)" fill="#6c63ff"/><path d="M170.29,783.87s15.35-.47,20-3.77,23.63-7.23,24.78-1.94,23.08,26.29,5.74,26.43-40.29-2.7-44.91-5.52S170.29,783.87,170.29,783.87Z" transform="translate(-95.23 -55.03)" fill="#a8a8a8"/><path d="M221.1,802.75c-17.34.14-40.29-2.7-44.91-5.52-3.52-2.14-4.92-9.83-5.39-13.38l-.51,0s1,12.39,5.59,15.2,27.57,5.66,44.91,5.52c5,0,6.73-1.82,6.64-4.46C226.73,801.72,224.82,802.72,221.1,802.75Z" transform="translate(-95.23 -55.03)" opacity="0.2"/>
</symbol>
<symbol id="icon-heart" viewBox="0 0 28 28">
<title>heart</title>
<path d="M14 26c-0.25 0-0.5-0.094-0.688-0.281l-9.75-9.406c-0.125-0.109-3.563-3.25-3.563-7 0-4.578 2.797-7.313 7.469-7.313 2.734 0 5.297 2.156 6.531 3.375 1.234-1.219 3.797-3.375 6.531-3.375 4.672 0 7.469 2.734 7.469 7.313 0 3.75-3.437 6.891-3.578 7.031l-9.734 9.375c-0.187 0.187-0.438 0.281-0.688 0.281z"></path>
</symbol>
</defs>
</svg>